<svg width="56" height="56" viewBox="0 0 56 56" fill="none" xmlns="http://www.w3.org/2000/svg">
<path d="M28 0C12.5608 0 0 12.5608 0 28C0 43.4392 12.5608 56 28 56C43.4392 56 56 43.4392 56 28C56 12.5608 43.4392 0 28 0ZM28 50.4C15.6492 50.4 5.6 40.3508 5.6 28C5.6 15.6492 15.6492 5.6 28 5.6C40.3508 5.6 50.4 15.6492 50.4 28C50.4 40.3508 40.3508 50.4 28 50.4Z" fill="#008037" fill-opacity="0.5"/>
<path d="M22.3971 32.4433L15.9599 26.0173L12.0063 29.9821L22.4027 40.3561L41.1795 21.5793L37.2203 17.6201L22.3971 32.4433Z" fill="#008037" fill-opacity="0.5"/>
</svg>
