<svg width="45" height="56" viewBox="0 0 45 56" fill="none" xmlns="http://www.w3.org/2000/svg">
<path d="M44.6236 18.704C44.5928 18.6144 44.5676 18.5276 44.5312 18.4408C44.3984 18.1369 44.2126 17.8591 43.9824 17.6204L27.1824 0.8204C26.9437 0.59019 26.6659 0.404352 26.362 0.2716C26.278 0.2324 26.1884 0.21 26.0988 0.1792C25.8645 0.0994733 25.6206 0.0514476 25.3736 0.0364C25.312 0.0308 25.2588 0 25.2 0H5.6C2.5116 0 0 2.5116 0 5.6V50.4C0 53.4884 2.5116 56 5.6 56H39.2C42.2884 56 44.8 53.4884 44.8 50.4V19.6C44.8 19.5412 44.7692 19.488 44.7636 19.4264C44.7492 19.1804 44.7022 18.9375 44.6236 18.704ZM35.2408 16.8H28V9.5592L35.2408 16.8ZM5.6 50.4V5.6H22.4V19.6C22.4 20.3426 22.695 21.0548 23.2201 21.5799C23.7452 22.105 24.4574 22.4 25.2 22.4H39.2L39.2056 50.4H5.6Z" fill="#ED564C" fill-opacity="0.5"/>
<path d="M24.5116 25.2002L24.0067 41.1319H20.5181L20.0132 25.2002H24.5116ZM22.446 47.6002C21.6504 47.6002 20.9771 47.409 20.4263 47.0267C19.8755 46.6443 19.6001 46.177 19.6001 45.6247C19.6001 45.0724 19.8755 44.605 20.4263 44.2227C20.9771 43.8403 21.6504 43.6491 22.446 43.6491C23.211 43.6491 23.8536 43.8403 24.3739 44.2227C24.9247 44.605 25.2001 45.0724 25.2001 45.6247C25.2001 46.177 24.9247 46.6443 24.3739 47.0267C23.8536 47.409 23.211 47.6002 22.446 47.6002Z" fill="#ED564C" fill-opacity="0.5"/>
</svg>
