<svg width="48" height="54" viewBox="0 0 48 54" fill="none" xmlns="http://www.w3.org/2000/svg">
<path d="M13.8879 18.5122H18.0761C18.2357 15.6691 18.7768 13.1111 19.5986 11.1063C16.6296 12.4989 14.4536 15.2284 13.8879 18.5122ZM13.8879 21.878C14.4546 25.1619 16.6296 27.8914 19.5986 29.284C18.7757 27.2792 18.2357 24.7211 18.0761 21.878H13.8879ZM24 30.1549C24.8239 29.3713 26.2254 26.5345 26.5104 21.878H21.4886C21.7746 26.5334 23.1761 29.3713 24 30.1549ZM21.4896 18.5122H26.5114C26.2264 13.8568 24.825 11.019 24.0011 10.2353C23.1761 11.019 21.7746 13.8568 21.4896 18.5122ZM28.4014 29.284C31.3704 27.8914 33.5464 25.1619 34.1121 21.878H29.9239C29.7643 24.7211 29.2243 27.2792 28.4014 29.284ZM44.5714 0H6.85714C3.06964 0 0 3.01349 0 6.73171V47.1219C0 50.8402 3.06964 53.8537 6.85714 53.8537H44.5714C46.4646 53.8537 48 52.3464 48 50.4878V3.36585C48 1.50727 46.4646 0 44.5714 0ZM36 43.7561H12C11.0571 43.7561 10.2857 42.9988 10.2857 42.0732C10.2857 41.1476 11.0571 40.3902 12 40.3902H36C36.9429 40.3902 37.7143 41.1476 37.7143 42.0732C37.7143 42.9988 36.9429 43.7561 36 43.7561ZM24 33.6585C16.4261 33.6585 10.2857 27.6305 10.2857 20.1951C10.2857 12.7597 16.4261 6.73171 24 6.73171C31.5739 6.73171 37.7143 12.7597 37.7143 20.1951C37.7143 27.6305 31.5739 33.6585 24 33.6585ZM28.4014 11.1063C29.2243 13.1111 29.7643 15.6691 29.9239 18.5122H34.1121C33.5464 15.2284 31.3704 12.4989 28.4014 11.1063Z" fill="white"/>
</svg>
