<svg width="48" height="48" viewBox="0 0 48 48" fill="none" xmlns="http://www.w3.org/2000/svg">
<path d="M16.5 20.2502H31.5C32.3288 20.2502 33 19.5789 33 18.7502V17.2502C33 16.4214 32.3288 15.7502 31.5 15.7502H16.5C15.6713 15.7502 15 16.4214 15 17.2502V18.7502C15 19.5789 15.6713 20.2502 16.5 20.2502ZM15 27.7501C15 28.5789 15.6713 29.2501 16.5 29.2501H31.5C32.3288 29.2501 33 28.5789 33 27.7501V26.2501C33 25.4214 32.3288 24.7501 31.5 24.7501H16.5C15.6713 24.7501 15 25.4214 15 26.2501V27.7501ZM24 39.106C22.4606 39.106 20.9212 38.6316 19.6069 37.6819L0 23.5183V43.5C0 45.9853 2.01469 48 4.5 48H43.5C45.9853 48 48 45.9853 48 43.5V23.5183L28.3931 37.6819C27.0787 38.6307 25.5394 39.106 24 39.106ZM46.2759 15.2768C45.4462 14.6261 44.6597 14.014 43.5 13.1383V9.00023C43.5 6.51494 41.4853 4.50026 39 4.50026H31.7297C31.4447 4.29401 31.1794 4.10089 30.8822 3.88527C29.3062 2.73496 26.175 -0.0325231 24 0.000289252C21.825 -0.0325231 18.6947 2.73496 17.1178 3.88527C16.8206 4.10089 16.5553 4.29401 16.2703 4.50026H9C6.51469 4.50026 4.5 6.51494 4.5 9.00023V13.1383C3.34031 14.013 2.55375 14.6261 1.72406 15.2768C1.18702 15.6976 0.752733 16.2351 0.454044 16.8486C0.155356 17.462 9.24193e-05 18.1354 0 18.8177L0 19.8161L9 26.3176V9.00023H39V26.3176L48 19.8161V18.8177C48 17.4358 47.3644 16.1299 46.2759 15.2768Z" fill="white"/>
</svg>
