<svg width="48" height="48" viewBox="0 0 48 48" fill="none" xmlns="http://www.w3.org/2000/svg">
<path d="M42.8571 0H5.14286C2.30357 0 0 2.27548 0 5.08014V42.3345C0 45.1392 2.30357 47.4146 5.14286 47.4146H42.8571C45.6964 47.4146 48 45.1392 48 42.3345V5.08014C48 2.27548 45.6964 0 42.8571 0ZM17.1429 35.561C17.1429 36.4966 16.3757 37.2544 15.4286 37.2544H12C11.0529 37.2544 10.2857 36.4966 10.2857 35.561V22.0139C10.2857 21.0783 11.0529 20.3206 12 20.3206H15.4286C16.3757 20.3206 17.1429 21.0783 17.1429 22.0139V35.561ZM27.4286 35.561C27.4286 36.4966 26.6614 37.2544 25.7143 37.2544H22.2857C21.3386 37.2544 20.5714 36.4966 20.5714 35.561V11.8537C20.5714 10.9181 21.3386 10.1603 22.2857 10.1603H25.7143C26.6614 10.1603 27.4286 10.9181 27.4286 11.8537V35.561ZM37.7143 35.561C37.7143 36.4966 36.9471 37.2544 36 37.2544H32.5714C31.6243 37.2544 30.8571 36.4966 30.8571 35.561V28.7875C30.8571 27.8519 31.6243 27.0941 32.5714 27.0941H36C36.9471 27.0941 37.7143 27.8519 37.7143 28.7875V35.561Z" fill="white"/>
</svg>
