<svg width="48" height="60" viewBox="0 0 48 60" fill="none" xmlns="http://www.w3.org/2000/svg">
<rect width="48" height="60" fill="#E5E5E5"/>
<g clip-path="url(#clip0)">
<rect width="1440" height="1674" transform="translate(-1055 -403)" fill="white"/>
<g filter="url(#filter0_d)">
<rect x="-76" y="-21" width="380" height="150" rx="10" fill="white"/>
<rect x="-75.75" y="-20.75" width="379.5" height="149.5" rx="9.75" stroke="#C4C4C4" stroke-width="0.5"/>
</g>
<g filter="url(#filter1_d)">
<path d="M-76 -11C-76 -16.5228 -71.5228 -21 -66 -21H114V129H-66C-71.5229 129 -76 124.523 -76 119V-11Z" fill="#38B6FF"/>
</g>
<path d="M47.709 19.758C47.5668 19.4324 47.3677 19.1348 47.121 18.879L29.121 0.879C28.8652 0.632346 28.5676 0.433234 28.242 0.291C28.152 0.249 28.056 0.225 27.96 0.192C27.709 0.106578 27.4477 0.0551225 27.183 0.039C27.12 0.033 27.063 0 27 0H6C2.691 0 0 2.691 0 6V54C0 57.309 2.691 60 6 60H42C45.309 60 48 57.309 48 54V21C48 20.937 47.967 20.88 47.961 20.814C47.9463 20.5492 47.8948 20.2876 47.808 20.037C47.778 19.941 47.751 19.848 47.709 19.758ZM37.758 18H30V10.242L37.758 18ZM6 54V6H24V21C24 21.7956 24.3161 22.5587 24.8787 23.1213C25.4413 23.6839 26.2044 24 27 24H42L42.006 54H6Z" fill="white"/>
<path d="M12 30H36V36H12V30ZM12 42H36V48H12V42ZM12 18H18V24H12V18Z" fill="white"/>
</g>
<defs>
<filter id="filter0_d" x="-109" y="-52" width="450" height="220" filterUnits="userSpaceOnUse" color-interpolation-filters="sRGB">
<feFlood flood-opacity="0" result="BackgroundImageFix"/>
<feColorMatrix in="SourceAlpha" type="matrix" values="0 0 0 0 0 0 0 0 0 0 0 0 0 0 0 0 0 0 127 0" result="hardAlpha"/>
<feMorphology radius="5" operator="dilate" in="SourceAlpha" result="effect1_dropShadow"/>
<feOffset dx="2" dy="4"/>
<feGaussianBlur stdDeviation="15"/>
<feComposite in2="hardAlpha" operator="out"/>
<feColorMatrix type="matrix" values="0 0 0 0 0.768627 0 0 0 0 0.768627 0 0 0 0 0.768627 0 0 0 0.15 0"/>
<feBlend mode="normal" in2="BackgroundImageFix" result="effect1_dropShadow"/>
<feBlend mode="normal" in="SourceGraphic" in2="effect1_dropShadow" result="shape"/>
</filter>
<filter id="filter1_d" x="-109" y="-52" width="260" height="220" filterUnits="userSpaceOnUse" color-interpolation-filters="sRGB">
<feFlood flood-opacity="0" result="BackgroundImageFix"/>
<feColorMatrix in="SourceAlpha" type="matrix" values="0 0 0 0 0 0 0 0 0 0 0 0 0 0 0 0 0 0 127 0" result="hardAlpha"/>
<feMorphology radius="5" operator="dilate" in="SourceAlpha" result="effect1_dropShadow"/>
<feOffset dx="2" dy="4"/>
<feGaussianBlur stdDeviation="15"/>
<feComposite in2="hardAlpha" operator="out"/>
<feColorMatrix type="matrix" values="0 0 0 0 0.768627 0 0 0 0 0.768627 0 0 0 0 0.768627 0 0 0 0.15 0"/>
<feBlend mode="normal" in2="BackgroundImageFix" result="effect1_dropShadow"/>
<feBlend mode="normal" in="SourceGraphic" in2="effect1_dropShadow" result="shape"/>
</filter>
<clipPath id="clip0">
<rect width="1440" height="1674" fill="white" transform="translate(-1055 -403)"/>
</clipPath>
</defs>
</svg>
